<svg xmlns="http://www.w3.org/2000/svg" id="artwork" viewBox="0 0 137.3 42.3">
  <style>
    .st0{fill:#FFFFFF;fill-opacity:0;} .st1{fill:#FFFFFF;} .st2{fill:url(#SVGID_1_);} .st3{fill:url(#SVGID_2_);} .st4{fill:url(#SVGID_3_);} .st5{fill:url(#SVGID_4_);} .st6{opacity:0.2;enable-background:new ;} .st7{opacity:0.12;enable-background:new ;} .st8{opacity:0.25;fill:#FFFFFF;enable-background:new ;} .st9{fill:#FFFFFF;stroke:#FFFFFF;stroke-width:0.2;stroke-miterlimit:10;}
  </style>
  <path d="M-8.7-9h155v60h-155z" class="st0"/>
  <path d="M131.3 41H6.3c-2.7 0-5-2.3-5-5V6c0-2.7 2.3-5 5-5h125c2.8 0 5 2.3 5 5v30c0 2.7-2.2 5-5 5z"/>
  <path d="M69.5 22.8c-2.4 0-4.3 1.8-4.3 4.3 0 2.4 1.9 4.3 4.3 4.3s4.3-1.8 4.3-4.3c-.1-2.6-2-4.3-4.3-4.3zm0 6.8c-1.3 0-2.4-1.1-2.4-2.6s1.1-2.6 2.4-2.6c1.3 0 2.4 1 2.4 2.6 0 1.5-1.1 2.6-2.4 2.6zm-9.3-6.8c-2.4 0-4.3 1.8-4.3 4.3 0 2.4 1.9 4.3 4.3 4.3s4.3-1.8 4.3-4.3c-.1-2.6-2-4.3-4.3-4.3zm0 6.8c-1.3 0-2.4-1.1-2.4-2.6s1.1-2.6 2.4-2.6c1.3 0 2.4 1 2.4 2.6 0 1.5-1.2 2.6-2.4 2.6zm-11.1-5.5v1.8h4.3c-.1 1-.5 1.8-1 2.3-.6.6-1.6 1.3-3.3 1.3-2.7 0-4.7-2.1-4.7-4.8s2.1-4.8 4.7-4.8c1.4 0 2.5.6 3.3 1.3l1.3-1.3c-1.1-1-2.5-1.8-4.5-1.8-3.6 0-6.7 3-6.7 6.6 0 3.6 3.1 6.6 6.7 6.6 2 0 3.4-.6 4.6-1.9 1.2-1.2 1.6-2.9 1.6-4.2 0-.4 0-.8-.1-1.1h-6.2zm45.3 1.4c-.4-1-1.4-2.7-3.6-2.7s-4 1.7-4 4.3c0 2.4 1.8 4.3 4.2 4.3 1.9 0 3.1-1.2 3.5-1.9l-1.4-1c-.5.7-1.1 1.2-2.1 1.2s-1.6-.4-2.1-1.3l5.7-2.4-.2-.5zm-5.8 1.4c0-1.6 1.3-2.5 2.2-2.5.7 0 1.4.4 1.6.9l-3.8 1.6zM84 31h1.9V18.5H84V31zm-3.1-7.3c-.5-.5-1.3-1-2.3-1-2.1 0-4.1 1.9-4.1 4.3s1.9 4.2 4.1 4.2c1 0 1.8-.5 2.2-1h.1v.6c0 1.6-.9 2.5-2.3 2.5-1.1 0-1.9-.8-2.1-1.5l-1.6.7c.5 1.1 1.7 2.5 3.8 2.5 2.2 0 4-1.3 4-4.4V23h-1.8v.7zm-2.1 5.9c-1.3 0-2.4-1.1-2.4-2.6s1.1-2.6 2.4-2.6c1.3 0 2.3 1.1 2.3 2.6-.1 1.5-1.1 2.6-2.3 2.6zm24.3-11.1h-4.5V31h1.9v-4.7h2.6c2.1 0 4.1-1.5 4.1-3.9s-2-3.9-4.1-3.9zm.1 6h-2.7v-4.3h2.7c1.4 0 2.2 1.2 2.2 2.1 0 1.1-.8 2.2-2.2 2.2zm11.5-1.8c-1.4 0-2.8.6-3.3 1.9l1.7.7c.4-.7 1-.9 1.7-.9 1 0 1.9.6 2 1.6v.1c-.3-.2-1.1-.5-1.9-.5-1.8 0-3.6 1-3.6 2.8 0 1.7 1.5 2.8 3.1 2.8 1.3 0 1.9-.6 2.4-1.2h.1v1h1.8v-4.8c-.2-2.2-1.8-3.5-4-3.5zm-.2 6.9c-.6 0-1.5-.3-1.5-1.1 0-1 1.1-1.3 2-1.3.8 0 1.2.2 1.7.4-.1 1.2-1.1 2-2.2 2zm10.6-6.6l-2.1 5.4h-.1l-2.2-5.4h-2l3.3 7.6-1.9 4.2h1.9l5.1-11.8h-2zm-16.8 8h1.9V18.5h-1.9V31z" class="st1"/>
  <linearGradient id="SVGID_1_" x1="23.13" x2="6.35" y1="171.15" y2="154.36" gradientUnits="userSpaceOnUse" gradientTransform="matrix(1 0 0 -1 0 180.855)">
    <stop offset="0" stop-color="#00A0FF"/>
    <stop offset=".01" stop-color="#00A1FF"/>
    <stop offset=".26" stop-color="#00BEFF"/>
    <stop offset=".51" stop-color="#00D2FF"/>
    <stop offset=".76" stop-color="#00DFFF"/>
    <stop offset="1" stop-color="#00E3FF"/>
  </linearGradient>
  <path d="M11.8 8.5c-.3.3-.5.8-.5 1.4V32c0 .6.2 1.1.5 1.4l.1.1 12.4-12.4v-.2L11.8 8.5z" class="st2"/>
  <linearGradient id="SVGID_2_" x1="35.17" x2="10.97" y1="159.85" y2="159.85" gradientUnits="userSpaceOnUse" gradientTransform="matrix(1 0 0 -1 0 180.855)">
    <stop offset="0" stop-color="#FFE000"/>
    <stop offset=".41" stop-color="#FFBD00"/>
    <stop offset=".78" stop-color="#FFA500"/>
    <stop offset="1" stop-color="#FF9C00"/>
  </linearGradient>
  <path d="M28.4 25.3l-4.1-4.1v-.3l4.1-4.1.1.1 4.9 2.8c1.4.8 1.4 2.1 0 2.9l-5 2.7z" class="st3"/>
  <linearGradient id="SVGID_3_" x1="26.16" x2="3.4" y1="157.56" y2="134.8" gradientUnits="userSpaceOnUse" gradientTransform="matrix(1 0 0 -1 0 180.855)">
    <stop offset="0" stop-color="#FF3A44"/>
    <stop offset="1" stop-color="#C31162"/>
  </linearGradient>
  <path d="M28.5 25.2L24.2 21 11.8 33.5c.5.5 1.2.5 2.1.1l14.6-8.4" class="st4"/>
  <linearGradient id="SVGID_4_" x1="8.63" x2="18.79" y1="179.68" y2="169.52" gradientUnits="userSpaceOnUse" gradientTransform="matrix(1 0 0 -1 0 180.855)">
    <stop offset="0" stop-color="#32A071"/>
    <stop offset=".07" stop-color="#2DA771"/>
    <stop offset=".48" stop-color="#15CF74"/>
    <stop offset=".8" stop-color="#06E775"/>
    <stop offset="1" stop-color="#00F076"/>
  </linearGradient>
  <path d="M28.5 16.8L13.8 8.5c-.8-.5-1.6-.4-2 0L24.2 21l4.3-4.2z" class="st5"/>
  <path d="M28.4 25.1l-14.5 8.2c-.8.5-1.5.4-2 0l-.1.1.1.1c.5.4 1.2.5 2 0l14.5-8.4z" class="st6"/>
  <path d="M11.8 33.3c-.3-.3-.5-.8-.5-1.4v.1c0 .6.2 1.1.5 1.4v-.1zm21.5-11l-5 2.8.1.1 4.9-2.8c.7-.4 1-.9 1-1.4 0 .5-.3.9-1 1.3z" class="st7"/>
  <path d="M13.8 8.6l19.5 11.1c.6.4 1 .8 1 1.3 0-.5-.3-1-1-1.4L13.8 8.5c-1.4-.8-2.5-.1-2.5 1.5v.1c0-1.6 1.1-2.3 2.5-1.5z" class="st8"/>
  <path d="M42.6 14V8h1.8c.9 0 1.7.3 2.2.8.6.6.8 1.3.8 2.2 0 .9-.3 1.6-.8 2.2-.6.6-1.3.8-2.2.8h-1.8zm.8-.7h1.1c.7 0 1.2-.2 1.6-.6.4-.4.6-1 .6-1.7s-.2-1.3-.6-1.7c-.4-.4-1-.6-1.6-.6h-1.1v4.6zm5.2.7V8h.8v6h-.8zm3.8.1c-.4 0-.9-.1-1.3-.4-.4-.3-.7-.7-.8-1.2l.7-.3c.1.3.3.6.5.8.3.2.6.3.9.3.3 0 .6-.1.9-.3.2-.2.4-.4.4-.7 0-.3-.1-.6-.4-.8-.2-.2-.6-.4-1.1-.5-.5-.2-.9-.4-1.2-.6-.3-.3-.4-.6-.4-1s.2-.8.5-1.1c.3-.3.8-.5 1.3-.5s.9.1 1.2.4c.3.3.5.5.6.8l-.7.3c-.1-.2-.2-.4-.4-.5-.2-.2-.5-.2-.8-.2-.3 0-.5.1-.8.2-.2.2-.3.4-.3.6 0 .2.1.4.3.6.2.2.5.3.9.4.3.1.5.2.7.3.2.1.4.2.6.4.2.1.4.3.5.6s.2.5.2.8c0 .3-.1.6-.2.8-.1.2-.3.4-.5.5l-.6.3h-.7zm3.9-.1h-.8V8h2c.5 0 .9.2 1.3.5s.6.8.6 1.3-.2.9-.6 1.3c-.4.3-.8.5-1.3.5h-1.3V14zm0-3.2h1.3c.3 0 .6-.1.8-.3.2-.2.3-.5.3-.7s-.1-.5-.3-.7c-.2-.2-.5-.3-.8-.3h-1.3v2zm9 2.4c-.6.6-1.3.9-2.2.9-.9 0-1.6-.3-2.2-.9-.6-.6-.9-1.3-.9-2.2s.3-1.6.9-2.2c.6-.6 1.3-.9 2.2-.9.9 0 1.6.3 2.2.9.6.6.9 1.3.9 2.2 0 .9-.3 1.6-.9 2.2zm-3.8-.5c.4.4 1 .7 1.6.7.6 0 1.2-.2 1.6-.7.4-.4.7-1 .7-1.7s-.2-1.3-.7-1.7c-.4-.4-1-.7-1.6-.7-.6 0-1.2.2-1.6.7-.4.4-.7 1-.7 1.7s.2 1.3.7 1.7zm5.8 1.3V8h.9l2.9 4.7V8h.8v6h-.8L68 9.1V14h-.7zm6 0V8h.8v6h-.8zm2.1 0V8h2.2c.5 0 .9.2 1.2.5.3.3.5.7.5 1.2 0 .3-.1.5-.2.8-.1.2-.3.4-.6.5.3.1.5.3.7.5.2.2.3.5.3.9 0 .5-.2.9-.5 1.2-.4.3-.8.5-1.3.5h-2.3zm.8-3.4h1.4c.3 0 .5-.1.7-.3.2-.2.3-.4.3-.6s-.1-.5-.3-.7c-.2-.2-.4-.3-.7-.3h-1.4v1.9zm0 2.7h1.6c.3 0 .5-.1.7-.3.2-.2.3-.4.3-.7 0-.2-.1-.5-.3-.7-.2-.2-.4-.3-.7-.3h-1.5v2zm4.4.7V8h.8v5.3H84v.7h-3.4zm7.8-5.3h-2.7v1.9h2.5v.7h-2.5v1.9h2.7v.8h-3.5V8h3.5v.7zm6.7 0h-2.7v1.9h2.5v.7h-2.5v1.9h2.7v.8h-3.5V8h3.5v.7zm1.2 5.3V8h.9l2.9 4.7V8h.8v6h-.8L97 9.1V14h-.7z" class="st9"/>
</svg>
