<svg xmlns="http://www.w3.org/2000/svg" id="artwork" viewBox="0 0 137.3 42.3">
  <style>
    .st0{fill:#FFFFFF;fill-opacity:0;} .st1{opacity:0.2;enable-background:new ;} .st2{opacity:0.12;enable-background:new ;} .st3{fill:#FFFFFF;}
  </style>
  <path d="M-8.7-9h155v60h-155V-9z" class="st0"/>
  <path d="M131.3 41H6.3c-2.7 0-5-2.3-5-5V6c0-2.7 2.3-5 5-5h125c2.8 0 5 2.3 5 5v30c0 2.7-2.2 5-5 5z"/>
  <path d="M28.4 25.1l-14.5 8.2c-.8.5-1.5.4-2 0l-.1.1.1.1c.5.4 1.2.5 2 0l14.5-8.4z" class="st1"/>
  <path d="M11.8 33.3c-.3-.3-.5-.8-.5-1.4v.1c0 .6.2 1.1.5 1.4v-.1zm21.5-11l-5 2.8.1.1 4.9-2.8c.7-.4 1-.9 1-1.4 0 .5-.3.9-1 1.3z" class="st2"/>
  <g id="bag_18_">
    <g id="handles_18_">
      <path d="M28.1 6.7c-1.4.5-2.4.9-2.4 3.6v1.3l.8-.2v-1.1c0-1.8.4-2.2 1.7-2.7-.1-.4-.1-.6-.1-.9zm2.4-.6c.1.3.1.5.1.8 2.2-.3 2.1.6 2.1 2.5v.7l.8-.2v-.5c.1-2.9-.4-3.6-3-3.3z" class="st3"/>
      <path d="M21.9 12.3V8.5c0-2.4 1.2-3.1 3.5-3.6C28.8 4 29 6.2 29 7.6v3.2l.8-.2v-3c0-2.6-.8-4.6-4.6-3.8-2 .5-4.1 1-4.1 4.5v4.1l.8-.1z" class="st3"/>
    </g>
    <path d="M37.7 10.1l-22.9 4.6v16.7L37.7 36l4.6-1.7V11.8l-4.6-1.7zM24.8 28l-5.1-.7V23h5.1v5zm0-5.6h-5.1v-3.9l5.1-.7v4.6zm7.1 6.5l-6.4-.9v-5h6.4v5.9zm0-6.5h-6.4v-4.6l6.4-.9v5.5z" class="st3"/>
  </g>
  <path d="M60.6 19.2h-.7l-2.7-9.1c-.1-.5-.2-.8-.2-1.1 0 .3-.1.6-.3 1.1l-2.9 9.2h-.7L49.5 7.1h.9l2.8 9.7c.1.4.2.7.3 1.1v-.2c0-.1 1.1-3.6 3.3-10.6h.4l2.8 9.7c.1.5.2.9.3 1.1l.1-.3L63.3 7h.9l-3.6 12.2zm5.6-10.8c-.2 0-.3-.1-.4-.2-.1-.1-.2-.3-.2-.5s.1-.3.2-.5c.1-.1.3-.2.4-.2.2 0 .3.1.5.2.1.1.2.3.2.5s-.1.3-.2.5c-.2.1-.3.2-.5.2zm-.4 10.8v-8.7h.8v8.7h-.8zm9.3 0v-5.1c0-2.1-.8-3.1-2.3-3.1-.8 0-1.5.3-2.1.9-.5.6-.8 1.4-.8 2.3v5h-.8v-8.7h.9v1.6c.6-1.2 1.6-1.8 3-1.8.9 0 1.7.3 2.2.9.5.6.7 1.5.7 2.7v5.3h-.8zm9.4 0v-1.6c-.3.5-.7 1-1.3 1.3-.6.3-1.2.5-1.9.5-1.1 0-2-.4-2.6-1.2-.7-.8-1-1.9-1-3.2 0-.9.2-1.7.5-2.4s.8-1.3 1.4-1.7c.6-.4 1.3-.6 2.1-.6 1.3 0 2.2.5 2.8 1.6V6.4h.8v12.8h-.8zm0-5.2c0-.8-.3-1.5-.8-2.1-.5-.5-1.2-.8-2-.8-.9 0-1.7.4-2.3 1.1-.6.7-.9 1.7-.9 2.9 0 1.1.3 2.1.8 2.7.5.7 1.2 1 2.1 1 .9 0 1.7-.3 2.3-.9.6-.6.9-1.3.9-2.3V14zm6.8 5.5c-1.3 0-2.3-.4-3-1.2-.7-.8-1.1-1.9-1.1-3.3s.4-2.5 1.1-3.4c.8-.8 1.8-1.2 3.1-1.2 1.2 0 2.2.4 2.9 1.2.7.8 1.1 1.9 1.1 3.3s-.4 2.5-1.1 3.3c-.7.8-1.7 1.3-3 1.3zm.1-8.4c-1 0-1.8.3-2.4 1-.7.7-1 1.7-1 2.9 0 1.1.3 2.1.9 2.7.6.7 1.4 1 2.4 1s1.8-.3 2.4-1c.6-.7.9-1.6.9-2.8 0-1.2-.3-2.2-.8-2.9-.6-.6-1.4-.9-2.4-.9zm13.4 8.1h-.8l-1.9-6.5c0-.1-.1-.4-.1-.7 0 .1-.1.4-.2.7l-2.1 6.6H99l-2.6-8.7h.9l2 6.9c.1.2.1.4.1.7h.1c0-.1.1-.4.2-.7l2.2-6.9h.5l2 6.9c0 .2.1.4.1.7h.1c0-.2 0-.4.1-.7l2.1-6.9h.8l-2.8 8.6zm3.7-.3V18c.3.2.6.4 1 .6.4.2.8.2 1.1.2 1.4 0 2-.6 2-1.7 0-.4-.1-.7-.4-.9-.3-.3-.8-.6-1.5-.9-.8-.3-1.4-.7-1.7-1.1-.4-.4-.5-.9-.5-1.5 0-.7.3-1.3.8-1.7.5-.4 1.2-.7 2-.7.7 0 1.4.2 1.9.5v.9c-.7-.4-1.3-.6-2-.6-.6 0-1 .1-1.4.4-.4.3-.5.7-.5 1.2 0 .3.1.6.2.8.1.2.3.4.5.5.3.2.6.4 1.1.6.9.4 1.6.8 1.9 1.1.3.4.5.8.5 1.4 0 .7-.3 1.3-.8 1.7-.5.4-1.2.7-2.1.7-.8 0-1.5-.2-2.1-.6zM51.4 30.2v4.9h-.8V22.9h2.9c1.3 0 2.2.3 2.9.9.7.6 1 1.4 1 2.5 0 1.2-.4 2.1-1.1 2.8-.8.7-1.8 1.1-3.1 1.1h-1.8zm0-6.5v5.7h1.7c1.1 0 1.9-.3 2.5-.8.6-.5.9-1.3.9-2.2 0-1.8-1-2.7-3.1-2.7h-2zm14.2 11.4v-5.2c0-1-.2-1.8-.6-2.3-.4-.5-1-.7-1.7-.7-.5 0-1 .1-1.4.4s-.8.7-1 1.2c-.2.5-.4 1.1-.4 1.8v4.8h-.8V22.2h.8V28c.7-1.2 1.7-1.8 3-1.8.9 0 1.7.3 2.1.9.5.6.7 1.5.7 2.6v5.4h-.7zm6.7.2c-1.3 0-2.3-.4-3-1.2-.7-.8-1.1-1.9-1.1-3.3s.4-2.5 1.1-3.4c.8-.8 1.8-1.2 3.1-1.2 1.2 0 2.2.4 2.9 1.2.7.8 1.1 1.9 1.1 3.3s-.4 2.5-1.1 3.3c-.8.9-1.7 1.3-3 1.3zm.1-8.4c-1 0-1.8.3-2.4 1-.6.7-.9 1.6-.9 2.9 0 1.1.3 2.1.9 2.7.6.7 1.4 1 2.4 1s1.8-.3 2.4-1c.6-.7.9-1.6.9-2.8 0-1.2-.3-2.2-.8-2.9-.7-.6-1.5-.9-2.5-.9zm11.9 8.2V30c0-2.1-.8-3.1-2.3-3.1-.8 0-1.5.3-2.1.9-.5.6-.8 1.4-.8 2.3v5h-.8v-8.7h.8V28c.6-1.2 1.6-1.8 3-1.8.9 0 1.7.3 2.2.9.5.6.7 1.5.7 2.7v5.3h-.7zm3.4-4.3c0 1.2.3 2.1.8 2.8.6.7 1.3 1 2.3 1 1 0 1.9-.4 2.8-1.1v.8c-.9.6-1.9 1-3 1s-2.1-.4-2.7-1.2c-.7-.8-1-1.9-1-3.4 0-.8.2-1.6.5-2.3.3-.7.8-1.2 1.4-1.6.6-.4 1.3-.6 2-.6 1.1 0 1.9.4 2.5 1.1.6.7.9 1.8.9 3.1v.3h-6.5zm5.6-.7c0-1-.3-1.8-.7-2.3-.4-.6-1.1-.8-1.8-.8-.8 0-1.5.3-2 .8s-.9 1.3-1 2.3h5.5z" class="st3"/>
</svg>
