<svg id="twitter" viewBox="0 0 112.2 112.2"><title>twitter</title><path fill="#FFFFFF" d="M56.1 0C25.1 0 0 25.1 0 56.1s25.1 56.1 56.1 56.1 56.1-25.1 56.1-56.1S87.1 0 56.1 0zm27.7 47.3V49c0 17.7-13.5 38.2-38.2 38.2-7.6 0-14.6-2.2-20.6-6 1 .1 2.1.2 3.2.2 6.3 0 12.1-2.1 16.7-5.7-5.9-.1-10.8-4-12.5-9.3.8.2 1.7.2 2.5.2 1.2 0 2.4-.2 3.5-.5-6.1-1.2-10.8-6.7-10.8-13.1v-.2c1.8 1 3.9 1.6 6.1 1.7-3.6-2.4-6-6.5-6-11.2 0-2.5.7-4.8 1.8-6.7 6.6 8.1 16.5 13.5 27.6 14-.2-1-.3-2-.3-3.1 0-7.4 6-13.4 13.4-13.4 3.9 0 7.3 1.6 9.8 4.2 3.1-.6 5.9-1.7 8.5-3.3-1 3.1-3.1 5.8-5.9 7.4 2.7-.3 5.3-1 7.7-2.1-1.6 2.7-3.9 5.1-6.5 7z"></path></svg>