<svg id="youtube" viewBox="0 0 97.8 97.8"><title>youtube</title><path fill="#FFFFFF" d="M25.7 52.5h3.9v21h3.6v-21h4V49H25.7zm31 2.5c-1.2 0-2.3.7-3.4 2v-8H50v24.4h3.3v-1.8c1.1 1.4 2.2 2 3.4 2 1.3 0 2.2-.7 2.6-2 .2-.8.3-2 .3-3.7v-7.2c0-1.7-.1-2.9-.3-3.7-.4-1.3-1.3-2-2.6-2zm-.4 13.3c0 1.6-.5 2.5-1.4 2.5-.5 0-1.1-.3-1.6-.8V58.8c.6-.5 1.1-.8 1.6-.8 1 0 1.4.8 1.4 2.5v7.8zm-12.5.9c-.7 1-1.4 1.5-2.1 1.5-.4 0-.7-.3-.8-.8V55.3h-3.3v14.4c0 1.3.1 2.2.3 2.7.3.9 1.1 1.4 2.1 1.4 1.2 0 2.5-.7 3.8-2.2v2h3.3V55.3h-3.3v13.9zm2.9-30.7c1.1 0 1.6-.9 1.6-2.6v-7.7c0-1.7-.5-2.5-1.6-2.5s-1.6.8-1.6 2.5v7.7c0 1.7.5 2.6 1.6 2.6z"></path><path fill="#FFFFFF" d="M48.9 0C21.9 0 0 21.9 0 48.9s21.9 48.9 48.9 48.9 48.9-21.9 48.9-48.9S75.9 0 48.9 0zm5.4 22.9h3.3v14.8c.1.5.3.8.8.8.7 0 1.4-.5 2.1-1.6v-14h3.3v18.4h-3.3v-2c-1.3 1.5-2.6 2.3-3.8 2.3-1.1 0-1.8-.4-2.1-1.4-.2-.6-.3-1.4-.3-2.7V22.9zm-12.6 6c0-2 .3-3.4 1-4.3.9-1.3 2.2-1.9 3.9-1.9 1.7 0 3 .6 3.9 1.9.7.9 1 2.4 1 4.3v6.4c0 2-.3 3.4-1 4.3-.9 1.3-2.2 1.9-3.9 1.9-1.7 0-3-.6-3.9-1.9-.7-.9-1-2.4-1-4.3v-6.4zm-8.9-12.3l2.6 9.7 2.5-9.7h3.7l-4.4 14.7v10h-3.7v-10c-.3-1.8-1.1-4.4-2.3-7.8l-2.4-6.9h4zm42.4 58.5c-.7 2.9-3 5-5.9 5.4-6.8.8-13.6.8-20.4.8-6.8 0-13.7 0-20.4-.8-2.9-.3-5.2-2.5-5.9-5.4-1-4.1-1-8.6-1-12.9s0-8.8 1-12.9c.7-2.9 3-5 5.9-5.4 6.8-.8 13.6-.8 20.4-.8 6.8 0 13.7 0 20.4.8 2.9.3 5.2 2.5 5.9 5.4.9 4.1.9 8.6.9 12.9s0 8.7-.9 12.9z"></path><path fill="#FFFFFF" d="M67.2 55c-1.7 0-3 .6-3.9 1.9-.7.9-1 2.3-1 4.3v6.4c0 1.9.4 3.4 1.1 4.3 1 1.2 2.3 1.9 4 1.9 1.7 0 3.1-.7 4-2 .4-.6.7-1.2.8-2 0-.3.1-1.1.1-2.1v-.5h-3.4c0 1.3 0 2.1-.1 2.2-.2.9-.7 1.3-1.5 1.3-1.1 0-1.7-.8-1.7-2.5V65h6.6v-3.8c0-1.9-.3-3.4-1-4.3-1.1-1.2-2.4-1.9-4-1.9zm1.6 7.2h-3.3v-1.7c0-1.7.6-2.5 1.7-2.5s1.6.8 1.6 2.5v1.7z"></path></svg>